<svg xmlns="http://www.w3.org/2000/svg" viewBox="0 0 512 512"><defs><style>.cls-1{fill:#fc4581;}.cls-2{fill:#3e436d;}.cls-3{fill:#db1b1b;}.cls-4{fill:#fff;}.cls-5{fill:#e5e3e3;}.cls-6{fill:#c61a1a;}.cls-7{fill:#f55b4b;}.cls-8{fill:#e0b14b;}.cls-9{fill:#00b564;}.cls-10{fill:#e88032;}.cls-11{fill:#ce6d2c;}.cls-12{fill:#f6c752;}.cls-13{fill:#f6d372;}</style></defs><title>Cinema</title><g id="BULINE"><circle class="cls-1" cx="256" cy="256" r="256"/></g><g id="Icons"><path class="cls-2" d="M477.64,384.18a256.07,256.07,0,0,1-443.28,0Z"/><path class="cls-3" d="M425,20.81,399.24,274.55l-19.3-2L405.72,18.85A3.87,3.87,0,0,1,410,15.39l11.61,1.18A3.88,3.88,0,0,1,425,20.81Z"/><polygon class="cls-4" points="421.3 57.4 418.92 80.81 400.58 69.47 402.95 46.05 421.3 57.4"/><polygon class="cls-4" points="417.17 98.05 414.79 121.47 396.45 110.12 398.82 86.71 417.17 98.05"/><polygon class="cls-4" points="413.04 138.71 410.66 162.12 392.32 150.77 394.7 127.36 413.04 138.71"/><polygon class="cls-4" points="408.91 179.36 406.53 202.77 388.19 191.43 390.57 168.01 408.91 179.36"/><polygon class="cls-4" points="404.78 220.01 402.4 243.43 384.06 232.08 386.44 208.66 404.78 220.01"/><path class="cls-4" d="M314.39,145.57H439.22a8.76,8.76,0,0,1,8.76,8.76v10.23a0,0,0,0,1,0,0H305.62a0,0,0,0,1,0,0V154.33A8.76,8.76,0,0,1,314.39,145.57Z"/><rect class="cls-5" x="305.62" y="157.25" width="142.36" height="7.3"/><path class="cls-3" d="M425.34,423.25H328.27a11.13,11.13,0,0,1-11.11-10.41l-15.25-231H451.7l-15.25,231A11.13,11.13,0,0,1,425.34,423.25Z"/><path class="cls-6" d="M450.11,206H415.93a83.81,83.81,0,0,0-83.63,89.32l8.45,127.94H328.26a11.12,11.12,0,0,1-11.1-10.4l-15.25-231H451.7Z"/><rect class="cls-4" x="293.54" y="163.76" width="166.53" height="18.06" rx="9.03"/><path class="cls-4" d="M303,198.17s35.37,86.4,140.94,101.36L440.53,351s-83,1.69-132.45-61.26Z"/><path class="cls-4" d="M438.65,379.6s-70.81,6.86-126.58-33.51l2.12,28.15s65.53,29.44,123.33,22.42Z"/><circle class="cls-7" cx="426.14" cy="255.75" r="12.51"/><circle class="cls-7" cx="426.14" cy="229.68" r="8.86"/><rect class="cls-8" x="84.48" y="311.96" width="286.46" height="78.13" rx="39.06"/><path class="cls-9" d="M344.3,318.44a15.23,15.23,0,0,0-9.95,2.72,8,8,0,0,1-9.18-.07,15.25,15.25,0,0,0-17.3,0,8.16,8.16,0,0,1-9.28,0,15.25,15.25,0,0,0-17.3,0,8.16,8.16,0,0,1-9.28,0,15.25,15.25,0,0,0-17.3,0,8.18,8.18,0,0,1-9.29,0,15.25,15.25,0,0,0-17.3,0,8.16,8.16,0,0,1-9.28,0,15.25,15.25,0,0,0-17.3,0,8.18,8.18,0,0,1-9.29,0,15.25,15.25,0,0,0-17.3,0,8.16,8.16,0,0,1-9.28,0,15.25,15.25,0,0,0-17.3,0,8.18,8.18,0,0,1-9.29,0,15.25,15.25,0,0,0-17.3,0,8,8,0,0,1-9.18.07,15.2,15.2,0,0,0-9.94-2.72,15.3,15.3,0,1,0,14.48,22.81,15.29,15.29,0,0,0,26.59,0,15.28,15.28,0,0,0,26.58,0,15.29,15.29,0,0,0,26.59,0,15.28,15.28,0,0,0,26.58,0,15.28,15.28,0,0,0,26.58,0,15.29,15.29,0,0,0,26.59,0,15.28,15.28,0,0,0,26.58,0,15.29,15.29,0,0,0,26.59,0,15.29,15.29,0,1,0,14.48-22.81Z"/><rect class="cls-10" x="51.93" y="326.01" width="333.66" height="54.9" rx="27.45"/><path class="cls-11" d="M382.19,366.72a27.51,27.51,0,0,1-24.05,14.2H79.38A27.45,27.45,0,0,1,60,334.06a27.8,27.8,0,0,1,6.76-5,27.46,27.46,0,0,0,24,40.7H369.54A27.37,27.37,0,0,0,382.19,366.72Z"/><rect class="cls-12" x="69.84" y="345.12" width="286.46" height="78.13" rx="39.06"/><path class="cls-8" d="M352.11,401.79a39.28,39.28,0,0,1-7.26,10,38.88,38.88,0,0,1-27.62,11.45H108.9a39.07,39.07,0,0,1-20.23-72.49,39.07,39.07,0,0,0,34.88,56.67H331.88A38.86,38.86,0,0,0,352.11,401.79Z"/><circle class="cls-13" cx="318.95" cy="368.99" r="9.41"/><circle class="cls-13" cx="299.35" cy="368.99" r="6.66"/><path class="cls-3" d="M345.9,349h-2.19a9,9,0,0,1-9-9V334.5a4.1,4.1,0,0,0-8.2,0V340a9,9,0,0,1-9,9h-2.19a9,9,0,0,1-9-9V334.5a4.1,4.1,0,1,0-8.2,0V340a9,9,0,0,1-9,9H287a9,9,0,0,1-9-9V334.5a4.1,4.1,0,1,0-8.19,0V340a9,9,0,0,1-9,9h-2.18a9,9,0,0,1-9-9V334.5a4.1,4.1,0,0,0-8.2,0V340a9,9,0,0,1-9,9h-2.19a9,9,0,0,1-9-9V334.5a4.1,4.1,0,1,0-8.2,0V340a9,9,0,0,1-9,9H202a9,9,0,0,1-9-9V334.5a4.1,4.1,0,0,0-8.2,0V340a9,9,0,0,1-9,9h-2.18a9,9,0,0,1-9-9V334.5a4.1,4.1,0,1,0-8.19,0V340a9,9,0,0,1-9,9h-2.18a9,9,0,0,1-9-9V334.5a4.1,4.1,0,0,0-8.2,0V340a9,9,0,0,1-9,9h-2.19a9,9,0,0,1-9-9V334.5a4.1,4.1,0,0,0-8.2,0V340a9,9,0,0,1-9,9H88.58a9,9,0,0,1-9-9V328a2.44,2.44,0,1,1,4.88,0V340a4.11,4.11,0,0,0,4.1,4.1h2.19a4.11,4.11,0,0,0,4.1-4.1V334.5a9,9,0,0,1,18,0V340a4.11,4.11,0,0,0,4.1,4.1h2.19a4.11,4.11,0,0,0,4.1-4.1V334.5a9,9,0,0,1,18,0V340a4.11,4.11,0,0,0,4.1,4.1h2.18a4.11,4.11,0,0,0,4.1-4.1V334.5a9,9,0,0,1,18,0V340a4.11,4.11,0,0,0,4.1,4.1h2.18a4.11,4.11,0,0,0,4.1-4.1V334.5a9,9,0,0,1,18,0V340a4.11,4.11,0,0,0,4.1,4.1h2.19a4.11,4.11,0,0,0,4.1-4.1V334.5a9,9,0,1,1,18,0V340a4.11,4.11,0,0,0,4.1,4.1h2.19a4.11,4.11,0,0,0,4.1-4.1V334.5a9,9,0,0,1,18,0V340a4.11,4.11,0,0,0,4.1,4.1h2.18A4.11,4.11,0,0,0,265,340V334.5a9,9,0,0,1,18,0V340a4.11,4.11,0,0,0,4.1,4.1h2.18a4.11,4.11,0,0,0,4.1-4.1V334.5a9,9,0,1,1,18,0V340a4.11,4.11,0,0,0,4.1,4.1h2.19a4.11,4.11,0,0,0,4.1-4.1V334.5a9,9,0,0,1,18,0V340a4.11,4.11,0,0,0,4.1,4.1h2.19A4.11,4.11,0,0,0,350,340V334.5a9,9,0,0,1,9-9h6.54a2.44,2.44,0,1,1,0,4.88H359a4.11,4.11,0,0,0-4.1,4.1V340A9,9,0,0,1,345.9,349Z"/></g></svg>